#!OML:ASF H:\Pregnant\Project 1\Capture day 1\Session 1\femalepreg.ASF
:FULLY-SPECIFIED
:DEGREES
241
root 5.0489 15.7419 28.0366 -176.971 -87.3346 -164.95
lowerback -30.0975 0.903106 -0.669259
upperback -3.76985 0.865215 0.810127
thorax 12.3559 0.166505 1.62705
lowerneck -1.77261 2.81956 4.61362
upperneck 20.9196 3.44271 -2.77023
head 6.78736 1.56877 -1.47652
rclavicle 1.07716e-014 0
rhumerus 2.96582 2.83165 -94.0392
rradius 145.684
rwrist 25.525
rhand -55.66 5.80736
rfingers 7.12502
rthumb -28.0113 -22.1221
lclavicle 1.07716e-014 0
lhumerus 7.08525 -2.33315 93.7862
lradius 147.913
lwrist 7.55149
lhand -47.852 -60.6352
lfingers 7.12502
lthumb -20.5262 -31.7003
rfemur -24.8426 19.4848 19.5894
rtibia 27.2761
rfoot -15.605 -16.5417
rtoes -3.21694
lfemur 0 0 0
ltibia 0
lfoot 0 0
ltoes 0
242
root 5.04948 15.7415 28.0372 -177.261 -87.3592 -164.664
lowerback -30.0583 0.875975 -0.677197
upperback -3.76948 0.831763 0.822503
thorax 12.337 0.151113 1.6321
lowerneck -1.79045 2.81703 4.6633
upperneck 20.966 3.43352 -2.7752
head 6.80631 1.56683 -1.48705
rclavicle 6.94504e-015 7.95139e-015
rhumerus 2.9272 2.88573 -94.0895
rradius 145.728
rwrist 25.3396
rhand -55.7741 5.53319
rfingers 7.12502
rthumb -28.1203 -22.3784
lclavicle 6.94504e-015 7.95139e-015
lhumerus 7.09401 -2.25538 93.8624
lradius 147.938
lwrist 7.69451
lhand -47.8737 -60.6235
lfingers 7.12502
lthumb -20.5471 -31.6909
rfemur -24.8347 19.4874 19.6011
rtibia 27.2762
rfoot -15.5976 -16.5742
rtoes -3.23625
lfemur 0 0 0
ltibia 0
lfoot 0 0
ltoes 0
243
root 5.05034 15.7411 28.038 -177.507 -87.387 -164.421
lowerback -30.0126 0.846469 -0.689738
upperback -3.77406 0.796333 0.835761
thorax 12.309 0.134586 1.63989
lowerneck -1.80494 2.81669 4.71289
upperneck 21.0007 3.42749 -2.77819
head 6.821 1.5668 -1.49672
rclavicle -2.14936e-015 -4.37326e-015
rhumerus 2.88308 2.94851 -94.1161
rradius 145.759
rwrist 25.1792
rhand -55.9312 4.9225
rfingers 7.12502
rthumb -28.2705 -22.9644
lclavicle -2.14936e-015 -4.37326e-015
lhumerus 7.09999 -2.18189 93.9243
lradius 147.967
lwrist 7.85501
lhand -47.8842 -60.5963
lfingers 7.12502
lthumb -20.5572 -31.6648
rfemur -24.8303 19.4827 19.6089
rtibia 27.2764
rfoot -15.5927 -16.6031
rtoes -3.24568
lfemur 0 0 0
ltibia 0
lfoot 0 0
ltoes 0
244
root 5.05132 15.741 28.0387 -177.653 -87.4147 -164.274
lowerback -29.9639 0.817914 -0.712824
upperback -3.78359 0.764937 0.850887
thorax 12.2733 0.119303 1.65743
lowerneck -1.81549 2.8145 4.76094
upperneck 21.0268 3.4202 -2.78507
head 6.83215 1.56593 -1.50748
rclavicle 5.479e-015 -5.96354e-016
rhumerus 2.83247 3.0237 -94.1194
rradius 145.771
rwrist 25.0777
rhand -56.0553 4.48303
rfingers 7.12502
rthumb -28.389 -23.3841
lclavicle 5.479e-015 -5.96354e-016
lhumerus 7.10225 -2.13483 93.9838
lradius 147.995
lwrist 8.03101
lhand -47.8927 -60.5199
lfingers 7.12502
lthumb -20.5653 -31.5892
rfemur -24.8296 19.4783 19.6099
rtibia 27.276
rfoot -15.5883 -16.6322
rtoes -3.26197
lfemur 0 0 0
ltibia 0
lfoot 0 0
ltoes 0
245
root 5.05244 15.7412 28.0393 -177.734 -87.443 -164.189
lowerback -29.9141 0.794068 -0.741893
upperback -3.79604 0.740923 0.868933
thorax 12.2333 0.10699 1.68466
lowerneck -1.83233 2.80889 4.7941
upperneck 21.0497 3.40958 -2.79138
head 6.84293 1.5625 -1.51569
rclavicle -1.67476e-014 -1.33186e-014
rhumerus 2.78427 3.10255 -94.0958
rradius 145.766
rwrist 25.0187
rhand -56.1134 4.41903
rfingers 7.12502
rthumb -28.4446 -23.4389
lclavicle -1.67476e-014 -1.33186e-014
lhumerus 7.10964 -2.10397 94.0456
lradius 148.018
lwrist 8.23758
lhand -47.9038 -60.3734
lfingers 7.12502
lthumb -20.576 -31.4439
rfemur -24.8333 19.4726 19.6057
rtibia 27.2743
rfoot -15.5847 -16.6597
rtoes -3.26874
lfemur 0 0 0
ltibia 0
lfoot 0 0
ltoes 0
246
root 5.05374 15.7416 28.0401 -177.766 -87.4696 -164.148
lowerback -29.8641 0.776487 -0.773296
upperback -3.81093 0.724898 0.891508
thorax 12.19 0.0980477 1.72155
lowerneck -1.85532 2.79986 4.80164
upperneck 21.0708 3.39562 -2.79253
head 6.85339 1.55601 -1.51806
rclavicle -8.57259e-016 -3.77691e-015
rhumerus 2.74196 3.19721 -94.0501
rradius 145.748
rwrist 24.9917
rhand -56.0887 4.66258
rfingers 7.12502
rthumb -28.421 -23.1993
lclavicle -8.57259e-016 -3.77691e-015
lhumerus 7.12308 -2.08323 94.1153
lradius 148.038
lwrist 8.47155
lhand -47.9129 -60.1651
lfingers 7.12502
lthumb -20.5847 -31.2366
rfemur -24.8424 19.4648 19.5969
rtibia 27.2709
rfoot -15.5813 -16.6804
rtoes -3.27077
lfemur 0 0 0
ltibia 0
lfoot 0 0
ltoes 0
